<svg xmlns="http://www.w3.org/2000/svg" viewBox="0 0 100 100">
  <defs>
    <linearGradient id="oceanGrad" x1="0%" y1="0%" x2="100%" y2="100%">
      <stop offset="0%" style="stop-color:#0ea5e9;stop-opacity:1" />
      <stop offset="100%" style="stop-color:#0284c7;stop-opacity:1" />
    </linearGradient>
    <linearGradient id="sandGrad" x1="0%" y1="0%" x2="100%" y2="100%">
      <stop offset="0%" style="stop-color:#fbbf24;stop-opacity:1" />
      <stop offset="100%" style="stop-color:#f59e0b;stop-opacity:1" />
    </linearGradient>
  </defs>
  <circle cx="50" cy="50" r="48" fill="url(#oceanGrad)"/>
  <path d="M25 65 Q35 50 50 55 Q65 60 75 45 L75 75 L25 75 Z" fill="url(#sandGrad)"/>
  <circle cx="72" cy="28" r="10" fill="#fef08a"/>
  <path d="M20 70 Q25 60 30 70 Q35 60 40 70" fill="none" stroke="white" stroke-width="2" opacity="0.6"/>
  <path d="M50 75 Q55 68 60 75 Q65 68 70 75" fill="none" stroke="white" stroke-width="2" opacity="0.6"/>
  <path d="M40 45 L40 60 M35 50 L45 50 M37 55 L43 55" stroke="#065f46" stroke-width="3" stroke-linecap="round"/>
  <circle cx="40" cy="48" r="3" fill="#065f46"/>
</svg>
